ffmpeg version 8.0-essentials_build-www.gyan.dev Copyright (c) 2000-2025 the FFmpeg developers
  built with gcc 15.2.0 (Rev8, Built by MSYS2 project)
  configuration: --enable-gpl --enable-version3 --enable-static --disable-w32threads --disable-autodetect --enable-fontconfig --enable-iconv --enable-gnutls --enable-libxml2 --enable-gmp --enable-bzlib --enable-lzma --enable-zlib --enable-libsrt --enable-libssh --enable-libzmq --enable-avisynth --enable-sdl2 --enable-libwebp --enable-libx264 --enable-libx265 --enable-libxvid --enable-libaom --enable-libopenjpeg --enable-libvpx --enable-mediafoundation --enable-libass --enable-libfreetype --enable-libfribidi --enable-libharfbuzz --enable-libvidstab --enable-libvmaf --enable-libzimg --enable-amf --enable-cuda-llvm --enable-cuvid --enable-dxva2 --enable-d3d11va --enable-d3d12va --enable-ffnvcodec --enable-libvpl --enable-nvdec --enable-nvenc --enable-vaapi --enable-openal --enable-libgme --enable-libopenmpt --enable-libopencore-amrwb --enable-libmp3lame --enable-libtheora --enable-libvo-amrwbenc --enable-libgsm --enable-libopencore-amrnb --enable-libopus --enable-libspeex --enable-libvorbis --enable-librubberband
  libavutil      60.  8.100 / 60.  8.100
  libavcodec     62. 11.100 / 62. 11.100
  libavformat    62.  3.100 / 62.  3.100
  libavdevice    62.  1.100 / 62.  1.100
  libavfilter    11.  4.100 / 11.  4.100
  libswscale      9.  1.100 /  9.  1.100
  libswresample   6.  1.100 /  6.  1.100
[aist#0:1/pcm_s16le @ 000002c8f2a1c140] Guessed Channel Layout: stereo
Input #0, dshow, from 'video=vMix Video YV12:audio=vMix Audio':
  Duration: N/A, start: 332268.391000, bitrate: 1536 kb/s
  Stream #0:0: Video: rawvideo (YV12 / 0x32315659), yuv420p, 1920x1080, 59.94 fps, 59.94 tbr, 10000k tbn, start 332268.391000
  Stream #0:1: Audio: pcm_s16le, 48000 Hz, stereo, s16, 1536 kb/s, start 332268.410000
[dshow @ 000002c8f2a14940] real-time buffer [vMix Video YV12] [video input] too full or near too full (71% of size: 200000000 [rtbufsize parameter])! frame dropped!
[dshow @ 000002c8f2a14940] real-time buffer [vMix Video YV12] [video input] too full or near too full (73% of size: 200000000 [rtbufsize parameter])! frame dropped!
[dshow @ 000002c8f2a14940] real-time buffer [vMix Video YV12] [video input] too full or near too full (76% of size: 200000000 [rtbufsize parameter])! frame dropped!
[dshow @ 000002c8f2a14940] real-time buffer [vMix Video YV12] [video input] too full or near too full (77% of size: 200000000 [rtbufsize parameter])! frame dropped!
[dshow @ 000002c8f2a14940] real-time buffer [vMix Video YV12] [video input] too full or near too full (79% of size: 200000000 [rtbufsize parameter])! frame dropped!
[dshow @ 000002c8f2a14940] real-time buffer [vMix Video YV12] [video input] too full or near too full (80% of size: 200000000 [rtbufsize parameter])! frame dropped!
[dshow @ 000002c8f2a14940] real-time buffer [vMix Video YV12] [video input] too full or near too full (82% of size: 200000000 [rtbufsize parameter])! frame dropped!
[dshow @ 000002c8f2a14940] real-time buffer [vMix Video YV12] [video input] too full or near too full (83% of size: 200000000 [rtbufsize parameter])! frame dropped!
[dshow @ 000002c8f2a14940] real-time buffer [vMix Video YV12] [video input] too full or near too full (87% of size: 200000000 [rtbufsize parameter])! frame dropped!
[dshow @ 000002c8f2a14940] real-time buffer [vMix Video YV12] [video input] too full or near too full (88% of size: 200000000 [rtbufsize parameter])! frame dropped!
[dshow @ 000002c8f2a14940] real-time buffer [vMix Video YV12] [video input] too full or near too full (90% of size: 200000000 [rtbufsize parameter])! frame dropped!
    Last message repeated 5 times
[dshow @ 000002c8f2a14940] real-time buffer [vMix Video YV12] [video input] too full or near too full (91% of size: 200000000 [rtbufsize parameter])! frame dropped!
[dshow @ 000002c8f2a14940] real-time buffer [vMix Video YV12] [video input] too full or near too full (93% of size: 200000000 [rtbufsize parameter])! frame dropped!
[dshow @ 000002c8f2a14940] real-time buffer [vMix Video YV12] [video input] too full or near too full (94% of size: 200000000 [rtbufsize parameter])! frame dropped!
[dshow @ 000002c8f2a14940] real-time buffer [vMix Video YV12] [video input] too full or near too full (96% of size: 200000000 [rtbufsize parameter])! frame dropped!
    Last message repeated 5 times
[dshow @ 000002c8f2a14940] real-time buffer [vMix Video YV12] [video input] too full or near too full (97% of size: 200000000 [rtbufsize parameter])! frame dropped!
[dshow @ 000002c8f2a14940] real-time buffer [vMix Video YV12] [video input] too full or near too full (99% of size: 200000000 [rtbufsize parameter])! frame dropped!
[dshow @ 000002c8f2a14940] real-time buffer [vMix Video YV12] [video input] too full or near too full (101% of size: 200000000 [rtbufsize parameter])! frame dropped!
    Last message repeated 226 times
[tcp @ 000002c8f2a47740] Connection to tcp://localhost:1935?tcp_nodelay=0 failed: Error number -138 occurred
[rtmp @ 000002c8f2a1eb40] Cannot open connection tcp://localhost:1935?tcp_nodelay=0
[out#0/flv @ 000002c8f2a1c4c0] Error opening output rtmp://localhost:1935/live/stream: Error number -138 occurred
Error opening output file rtmp://localhost:1935/live/stream.
Error opening output files: Error number -138 occurred
[dshow @ 000002c8f2a14940] real-time buffer [vMix Video YV12] [video input] too full or near too full (101% of size: 200000000 [rtbufsize parameter])! frame dropped!
    Last message repeated 1 times
